#!OML:ASF F:\VICON\USERDATA\INSTALL\rory3\rory3.ASF
:FULLY-SPECIFIED
:DEGREES
1005
root -2.51298 17.5101 0.51669 5.31605 3.99192 1.72597
lowerback 8.06205 0.54805 -2.32672
upperback 1.05492 0.646065 3.16865
thorax -3.49178 0.372038 4.53853
lowerneck -22.8728 -1.05357 -9.41989
upperneck 27.2595 1.45046 2.09356
head 12.8661 -0.0624849 2.65104
rclavicle -1.39149e-015 2.94201e-014
rhumerus -36.4701 4.88311 -76.6499
rradius 84.291
rwrist 5.0526
rhand -25.1137 16.2523
rfingers 7.12502
rthumb 1.40178 -13.7229
lclavicle -1.39149e-015 2.94201e-014
lhumerus -38.6714 7.49411 80.7145
lradius 82.4614
lwrist 19.2807
lhand -16.1356 15.3947
lfingers 7.12502
lthumb 10.0694 45.1338
rfemur -21.2939 -5.90291 21.8406
rtibia 40.3176
rfoot -21.4387 -0.125763
rtoes 10.9418
lfemur -19.8051 2.67795 -18.1034
ltibia 35.4145
lfoot -18.4236 6.01593
ltoes -21.2382
1006
root -2.52497 17.5222 0.512919 5.34588 4.36607 1.92766
lowerback 8.13123 0.464033 -2.60595
upperback 1.05813 0.508782 3.16343
thorax -3.51615 0.307981 4.70791
lowerneck -22.9141 -1.0213 -9.35805
upperneck 27.4659 1.49889 2.04631
head 12.9566 -0.048756 2.63575
rclavicle 7.55382e-015 -6.36111e-015
rhumerus -36.1257 4.2939 -76.5609
rradius 84.3102
rwrist 4.85512
rhand -25.2393 16.0993
rfingers 7.12502
rthumb 1.28042 -13.8766
lclavicle 7.55382e-015 -6.36111e-015
lhumerus -38.6011 7.23191 80.9556
lradius 82.1353
lwrist 19.5636
lhand -16.1538 15.3269
lfingers 7.12502
lthumb 10.0518 45.0669
rfemur -21.2139 -5.79415 21.6667
rtibia 40.295
rfoot -21.7176 -0.425653
rtoes 10.3404
lfemur -19.8106 2.19759 -18.2317
ltibia 35.1778
lfoot -18.181 6.09016
ltoes -21.2074
1007
root -2.53227 17.5296 0.516796 5.38964 4.74093 2.10743
lowerback 8.1044 0.390911 -2.83019
upperback 1.04938 0.392329 3.16633
thorax -3.49991 0.25299 4.85204
lowerneck -22.9098 -1.01138 -9.28723
upperneck 27.6464 1.52481 1.94099
head 13.0306 -0.0510622 2.59126
rclavicle 1.5704e-014 -2.62396e-014
rhumerus -35.9032 3.73797 -76.4508
rradius 84.3156
rwrist 4.43495
rhand -25.4786 16.2477
rfingers 7.12502
rthumb 1.0493 -13.7295
lclavicle 1.5704e-014 -2.62396e-014
lhumerus -38.5828 6.71076 81.2289
lradius 81.8423
lwrist 19.7135
lhand -16.4072 15.4765
lfingers 7.12502
lthumb 9.80731 45.2282
rfemur -21.0875 -5.70371 21.4921
rtibia 40.188
rfoot -21.9611 -0.646048
rtoes 10.1417
lfemur -19.8002 1.61432 -18.3376
ltibia 34.8997
lfoot -17.8782 6.48853
ltoes -21.5501
1008
root -2.53902 17.5327 0.521078 5.4224 5.09185 2.07133
lowerback 7.97576 0.320926 -2.83232
upperback 1.10275 0.301292 3.18957
thorax -3.36302 0.203981 4.88667
lowerneck -22.9695 -1.03142 -9.16235
upperneck 27.7713 1.47827 1.87982
head 13.0988 -0.0713057 2.54175
rclavicle -3.97569e-015 1.43125e-014
rhumerus -35.6608 3.17056 -76.4464
rradius 84.2927
rwrist 4.08556
rhand -25.7765 16.1185
rfingers 7.12502
rthumb 0.761647 -13.8599
lclavicle -3.97569e-015 1.43125e-014
lhumerus -38.3561 6.05946 81.4798
lradius 81.3615
lwrist 19.6957
lhand -17.0202 15.4366
lfingers 7.12502
lthumb 9.21582 45.2152
rfemur -20.9688 -5.58396 21.5623
rtibia 40.0378
rfoot -22.2231 -0.852245
rtoes 10.0322
lfemur -19.7817 1.04143 -18.2083
ltibia 34.629
lfoot -17.6568 6.62948
ltoes -22.1584
1009
root -2.5422 17.5393 0.525395 5.4998 5.36053 1.88661
lowerback 7.74577 0.271117 -2.6626
upperback 1.17057 0.254181 3.25434
thorax -3.1587 0.17332 4.86098
lowerneck -23.0185 -1.06763 -9.1399
upperneck 27.9162 1.43148 1.86775
head 13.1725 -0.0962951 2.52879
rclavicle -4.57205e-015 -1.19271e-014
rhumerus -35.3933 2.5862 -76.4205
rradius 84.2823
rwrist 3.64771
rhand -26.1658 16.0064
rfingers 7.12502
rthumb 0.38564 -13.973
lclavicle -4.57205e-015 -1.19271e-014
lhumerus -38.1235 5.35385 81.7298
lradius 80.9641
lwrist 19.2553
lhand -16.909 15.0599
lfingers 7.12502
lthumb 9.32319 44.8338
rfemur -20.9215 -5.44082 21.7943
rtibia 39.845
rfoot -22.3425 -1.22883
rtoes 9.28633
lfemur -19.8466 0.605759 -17.9447
ltibia 34.4018
lfoot -17.5042 6.47983
ltoes -22.6058
1010
root -2.54279 17.5507 0.531205 5.63417 5.52464 1.82846
lowerback 7.53955 0.254328 -2.5885
upperback 1.12793 0.241566 3.2718
thorax -3.0863 0.165548 4.83724
lowerneck -22.7075 -1.10202 -9.16758
upperneck 27.9121 1.35718 1.86752
head 13.1123 -0.130355 2.5177
rclavicle 7.95139e-015 9.54166e-015
rhumerus -35.3264 2.02828 -76.401
rradius 84.2685
rwrist 3.44607
rhand -26.5975 15.7427
rfingers 7.12502
rthumb -0.0313257 -14.237
lclavicle 7.95139e-015 9.54166e-015
lhumerus -38.1032 4.59326 81.9376
lradius 80.5825
lwrist 18.6401
lhand -16.5801 14.0678
lfingers 7.12502
lthumb 9.64051 43.8272
rfemur -20.9058 -5.17013 21.8613
rtibia 39.6271
rfoot -22.4026 -1.52913
rtoes 9.14739
lfemur -19.8942 0.167865 -17.8308
ltibia 34.2141
lfoot -17.5848 6.3212
ltoes -22.8888
1011
root -2.5397 17.5622 0.539183 5.76879 5.68085 1.83855
lowerback 7.32332 0.231158 -2.54155
upperback 1.06874 0.216998 3.25255
thorax -3.02413 0.152423 4.79159
lowerneck -22.3809 -1.16831 -9.23445
upperneck 27.9284 1.23463 1.91575
head 13.0598 -0.183767 2.52437
rclavicle -1.2921e-014 -5.56597e-015
rhumerus -35.3944 1.49672 -76.4245
rradius 84.231
rwrist 3.23993
rhand -27.0178 15.8764
rfingers 7.12502
rthumb -0.437319 -14.1029
lclavicle -1.2921e-014 -5.56597e-015
lhumerus -38.0853 3.95157 82.1539
lradius 80.1202
lwrist 17.7397
lhand -16.5821 13.4275
lfingers 7.12502
lthumb 9.63861 43.187
rfemur -20.8828 -5.05316 21.84
rtibia 39.3947
rfoot -22.351 -1.71143
rtoes 8.97775
lfemur -19.8962 -0.217877 -17.8149
ltibia 34.0142
lfoot -17.7241 6.23064
ltoes -22.944
1012
root -2.53332 17.5744 0.549473 5.90302 5.85538 2.01244
lowerback 7.09311 0.220786 -2.57525
upperback 1.03457 0.200045 3.14638
thorax -2.92884 0.1424 4.69958
lowerneck -22.111 -1.26088 -9.38433
upperneck 27.9899 1.05305 2.14901
head 13.0384 -0.247875 2.60915
rclavicle -5.1684e-015 5.56597e-015
rhumerus -35.4583 0.961816 -76.4912
rradius 84.1204
rwrist 3.09435
rhand -27.2664 15.9492
rfingers 7.12502
rthumb -0.677357 -14.0295
lclavicle -5.1684e-015 5.56597e-015
lhumerus -38.1008 3.08266 82.3784
lradius 79.7254
lwrist 16.7251
lhand -16.9745 13.6039
lfingers 7.12502
lthumb 9.25992 43.3806
rfemur -20.8202 -5.07137 21.6299
rtibia 39.1536
rfoot -22.3825 -1.82556
rtoes 8.84153
lfemur -19.8491 -0.608514 -17.9889
ltibia 33.7921
lfoot -17.9682 6.03862
ltoes -22.3403
1013
root -2.52534 17.5894 0.561441 6.03159 6.03677 2.05433
lowerback 6.8377 0.181112 -2.45551
upperback 0.998697 0.156648 3.0569
thorax -2.81829 0.117426 4.54002
lowerneck -22.0025 -1.32003 -9.38554
upperneck 28.2005 0.91181 2.29957
head 13.1105 -0.295564 2.64834
rclavicle 2.10712e-014 1.59028e-015
rhumerus -35.5359 0.523569 -76.604
rradius 84.0188
rwrist 3.02098
rhand -27.5048 15.8453
rfingers 7.12502
rthumb -0.907607 -14.1326
lclavicle 2.10712e-014 1.59028e-015
lhumerus -38.2572 2.19004 82.5195
lradius 79.5151
lwrist 16.1554
lhand -17.3862 13.3993
lfingers 7.12502
lthumb 8.86272 43.1932
rfemur -20.7419 -5.11339 21.553
rtibia 38.9089
rfoot -22.3423 -1.91634
rtoes 9.21705
lfemur -19.8452 -0.905713 -18.0487
ltibia 33.5653
lfoot -18.1669 5.81526
ltoes -22.1488
1014
root -2.51549 17.6018 0.57871 6.12449 6.05502 1.93814
lowerback 6.55799 0.203474 -2.22063
upperback 0.961457 0.205616 3.02569
thorax -2.70432 0.137757 4.36769
lowerneck -21.7772 -1.35507 -9.44435
upperneck 28.321 0.825629 2.40588
head 13.1187 -0.328214 2.68642
rclavicle -2.56432e-014 1.43125e-014
rhumerus -35.679 0.0514264 -76.6586
rradius 83.8939
rwrist 3.05979
rhand -27.5672 15.8067
rfingers 7.12502
rthumb -0.967903 -14.1708
lclavicle -2.56432e-014 1.43125e-014
lhumerus -38.4022 1.47172 82.6548
lradius 79.2488
lwrist 15.3354
lhand -16.8953 12.3842
lfingers 7.12502
lthumb 9.33639 42.1574
rfemur -20.6272 -4.97737 21.6412
rtibia 38.662
rfoot -22.3322 -1.98018
rtoes 9.35838
lfemur -19.7798 -1.09413 -17.9452
ltibia 33.3391
lfoot -18.3769 5.63758
ltoes -21.8715
1015
root -2.50419 17.611 0.596017 6.1322 5.93757 1.77915
lowerback 6.34818 0.30318 -1.93344
upperback 0.970358 0.358341 2.97913
thorax -2.58992 0.208855 4.14144
lowerneck -21.5948 -1.41318 -9.48347
upperneck 28.4238 0.722979 2.45246
head 13.1309 -0.373758 2.69488
rclavicle -3.77691e-015 -1.27222e-014
rhumerus -35.8045 -0.538015 -76.6932
rradius 83.699
rwrist 3.19154
rhand -27.4888 15.9536
rfingers 7.12502
rthumb -0.892232 -14.0243
lclavicle -3.77691e-015 -1.27222e-014
lhumerus -38.4854 0.930841 82.7237
lradius 78.9975
lwrist 14.1229
lhand -15.6882 11.2486
lfingers 7.12502
lthumb 10.5009 40.9663
rfemur -20.4645 -4.84108 21.7574
rtibia 38.45
rfoot -22.2744 -1.77533
rtoes 9.9279
lfemur -19.5584 -1.15221 -17.8229
ltibia 33.1115
lfoot -18.6404 5.6594
ltoes -22.1562
